# xmcd CD database file
#
# Track frame offsets:
#	183
#	12328
#	25580
#	38200
#	49690
#	62033
#	74625
#	88013
#	100635
#	113108
#	124910
#	137425
#	150003
#	162805
#	176883
#	189888
#	203253
#	215368
#	229165
#	242488
#	256155
#	268255
#	282033
#	294003
#	304925
#
# Disc length: 4215 seconds
#
# Revision: 2
# Processed by: cddbd v1.5.1PL2 Copyright (c) Steve Scherf et al.
# Submitted via: CDex 1.51
#
DISCID=49107519
DTITLE=Horace and Fletcher Henderson - 1940-1941
DYEAR=1992
DGENRE=Jazz
TTITLE0=Horace Henderson/Shufflin' Joe
TTITLE1=Horace Henderson/Oh Boy, I'm In the Groove
TTITLE2=Horace Henderson/Kitty on Toast
TTITLE3=Horace Henderson/I Got Rhythm
TTITLE4=Horace Henderson/You're Mine, You!
TTITLE5=Horace Henderson/Honeysuckle Rose
TTITLE6=Horace Henderson/Chloe
TTITLE7=Horace Henderson/Swingin' and Jumpin'
TTITLE8=Horace Henderson/They Jittered All the Time
TTITLE9=Horace Henderson/Sultan Serenade
TTITLE10=Horace Henderson/Ginger Belle
TTITLE11=Horace Henderson/Do Re Mi
TTITLE12=Horace Henderson/When Dreams Come True
TTITLE13=Horace Henderson/I Still Have My Dreams
TTITLE14=Horace Henderson/Turkey Special
TTITLE15=Horace Henderson/Fling a Whing-Ding
TTITLE16=Horace Henderson/Coquette
TTITLE17=Horace Henderson/You Don't Mean Me No Good
TTITLE18=Horace Henderson/Smooth Sailing
TTITLE19=Horace Henderson/Ain't Misbehavin'
TTITLE20=Horace Henderson/I'll Always Be In Love With You
TTITLE21=Fletcher Henderson/Let's Go Home
TTITLE22=Fletcher Henderson/A Pixie From Dixie
TTITLE23=Fletcher Henderson/We Go Well Together
TTITLE24=Fletcher Henderson/I Like My Sugar Sweet
EXTD=YEAR: 1992
EXTT0=
EXTT1=
EXTT2=
EXTT3=
EXTT4=
EXTT5=
EXTT6=
EXTT7=
EXTT8=
EXTT9=
EXTT10=
EXTT11=
EXTT12=
EXTT13=
EXTT14=
EXTT15=
EXTT16=
EXTT17=
EXTT18=
EXTT19=
EXTT20=
EXTT21=
EXTT22=
EXTT23=
EXTT24=
PLAYORDER=
